<?xml version="1.0" encoding="UTF-8"?>
<svg width="94px" height="88px" viewBox="0 0 94 88" version="1.1" xmlns="http://www.w3.org/2000/svg" xmlns:xlink="http://www.w3.org/1999/xlink">
    <!-- Generator: sketchtool 48.2 (47327) - http://www.bohemiancoding.com/sketch -->
    <title>CCAE3ECA-CE94-4856-9CCC-760901A09B64</title>
    <desc>Created with sketchtool.</desc>
    <defs></defs>
    <g id="Wallet" stroke="none" stroke-width="1" fill="none" fill-rule="evenodd" transform="translate(-402.000000, -592.000000)">
        <g id="Group-Copy" transform="translate(327.000000, 554.000000)" fill="#54DFC5" fill-rule="nonzero" stroke="#5DD6BF">
            <g id="noun_deposit_150256" transform="translate(76.000000, 39.000000)">
                <path d="M45.622,43.748 C45.622,45.779 49.054,47.806 53.286,47.806 C57.518,47.806 60.951,45.78 60.951,43.748 C60.951,41.722 57.518,39.691 53.286,39.691 C49.054,39.691 45.622,41.722 45.622,43.748 Z M13.009,47.005 C13.009,68.442 30.621,85.819 52.348,85.819 C74.059,85.819 91.669,68.441 91.669,47.005 C91.669,25.569 74.059,8.193 52.348,8.193 C46.225,8.193 40.432,9.577 35.263,12.035 C35.575,13.4 35.75,14.823 35.75,16.286 C35.75,26.781 27.129,35.283 16.5,35.283 C15.954,35.283 15.408,35.264 14.862,35.205 C13.672,38.931 13.009,42.89 13.009,47.005 Z M78.408,42.579 L47.883,61.634 L27.969,52.624 L30.135,51.297 L47.884,59.176 L76.243,41.447 L78.408,42.579 Z M78.408,46.674 L47.883,65.73 L27.969,56.72 L30.135,55.394 L47.884,63.272 L76.243,45.543 L78.408,46.674 Z M78.408,38.483 L47.883,57.538 L27.969,48.527 L58.494,29.47 L78.408,38.483 Z M0,16.286 C0,25.278 7.392,32.574 16.501,32.574 C25.629,32.574 33.001,25.279 33.001,16.286 C33.001,7.295 25.628,0 16.501,0 C7.392,0 0,7.295 0,16.286 Z M18.665,9.928 L18.665,14.61 L23.424,14.61 C24.362,14.61 25.121,15.37 25.121,16.286 C25.121,17.223 24.361,17.964 23.424,17.964 L18.665,17.964 L18.665,22.665 C18.665,23.581 17.866,24.284 16.93,24.284 C15.993,24.284 15.272,23.581 15.272,22.665 L15.272,17.964 L10.532,17.964 C9.596,17.964 8.835,17.222 8.835,16.286 C8.835,15.369 9.596,14.61 10.532,14.61 L15.272,14.61 L15.272,9.928 C15.272,8.991 16.033,8.252 16.969,8.252 C17.905,8.252 18.665,8.991 18.665,9.928 Z" id="Shape"></path>
            </g>
        </g>
    </g>
</svg>